<?xml version="1.0" encoding="UTF-8"?>
<svg id="Layer_3" data-name="Layer 3" xmlns="http://www.w3.org/2000/svg" version="1.1" viewBox="0 0 635.5 219.4">
  <defs>
    <style>
      .cls-1 {
        fill: #c6b0bc;
      }

      .cls-1, .cls-2, .cls-3, .cls-4, .cls-5 {
        stroke-width: 0px;
      }

      .cls-2 {
        fill: #e9c768;
      }

      .cls-3 {
        fill: #a7bf87;
      }

      .cls-4 {
        fill: #ed907b;
      }

      .cls-5 {
        fill: #706f6c;
      }
    </style>
  </defs>
  <g id="Layer_1" data-name="Layer 1">
    <g>
      <g>
        <polygon class="cls-3" points="219.8 182.4 170.1 182.4 157.2 182.4 138.2 182.4 138.2 209.7 158.2 209.7 171.1 209.7 219.8 209.7 219.8 182.4"/>
        <path class="cls-3" d="M195.9,99.8h-4.2v36.5c0,5.6-5.7,10.1-12.7,10.1s-12.7-4.5-12.7-10.1v-36.5h-28v76.3h81.5v-76.3h-23.9Z"/>
        <polygon class="cls-4" points="220 93.2 116.3 93.2 116.3 0 220 93.2"/>
        <polygon class="cls-2" points="0 93.2 109.8 93.2 109.8 0 0 93.2"/>
        <path class="cls-1" d="M0,99.4v110.3h44.2v-42.6c0-11.2,9.7-20.2,21.6-20.2h0c11.9,0,21.6,9,21.6,20.2v42.6h44.2v-110.3H0Z"/>
      </g>
      <g>
        <path class="cls-5" d="M281,71.4h-7.2l-13.1-17.7v17.7h-7.2v-30.9h6.7l13.5,18.4v-18.4h7.2v30.9Z"/>
        <path class="cls-5" d="M309.6,64.8v6.6h-21.6v-30.9h21.6v6.6h-14.4v5.9h13.3v6.6h-13.3v5.3h14.4Z"/>
        <path class="cls-5" d="M357.3,40.5l-7.8,30.9h-9.4l-5-18.1-4.9,18.1h-9.3l-7.9-30.9h8.1l4.7,22.1,6-22.1h6.8l6.1,22.1,4.6-22.1h8.1Z"/>
        <path class="cls-5" d="M390.3,40.5h7.6l-11.1,20.5v10.4h-7.1v-10.4l-11.1-20.5h7.6l7,13.4,7-13.4Z"/>
        <path class="cls-5" d="M431.5,56c0,8.8-7.3,16-16.5,16s-16.5-7.2-16.5-16,7.3-16,16.5-16,16.5,7.2,16.5,16ZM406,56c0,5.1,4,9.4,9.1,9.4s9.1-4.3,9.1-9.4-4-9.4-9.1-9.4-9.1,4.2-9.1,9.4Z"/>
        <path class="cls-5" d="M454.8,71.4l-7.3-8.8h-3v8.8h-7.2v-30.9h12.4s12,0,12,11.1-3.4,8.6-6.6,9.9l7.8,9.9h-8.1ZM444.5,56.2h5.1c2.5,0,4.4-1.3,4.4-4.6s-2-4.7-4.4-4.7h-5.1v9.3Z"/>
        <path class="cls-5" d="M484.9,71.4l-10.2-13v13h-7.2v-30.9h7.2v12.4l8.9-12.4h8.4l-10.6,15.3,12.3,15.6h-8.8Z"/>
      </g>
      <g>
        <path class="cls-5" d="M256.7,144c-1.2,0-2.1-.7-2.1-1.7s.3-1.2,1.1-2l.9-.8c1.2-1,2-2.3,2-4.9v-32.8c0-2.1-.5-3.7-2-4.9l-.9-.8c-.8-.8-1.1-1.2-1.1-1.9,0-1.1.9-1.8,2.1-1.8h18.7c14.5,0,21.8,5.8,21.8,15.7s-8,17.2-22.8,17.2h-7.8v9.3c0,2,.3,3.5,1.9,4.9l.9.8c.8.8,1.1,1.2,1.1,2s-.8,1.7-2.1,1.7h-11.7ZM266.5,121h7.3c9.9,0,14.8-4.2,14.8-12.7s-4.4-11.7-13.9-11.7-8.3.8-8.3,3.6v20.7Z"/>
        <path class="cls-5" d="M329.2,111.2c0,2.3-1.8,4.4-3.7,4.4s-2.6-2.8-5.5-2.8-7,4.5-7,9.2v12.7c0,2.8.4,3.8,1.4,4.9l.8.8c.8.8,1.1,1.3,1.1,2,0,1.1-.8,1.7-2.1,1.7h-10.2c-1.4,0-2.1-.5-2.1-1.7s.3-1.1,1.1-2l.8-.8c1.1-1.1,1.5-2.1,1.5-4.9v-17.7c0-2.3-.4-3.3-1.4-4.3l-1.1-.8c-.6-.5-1-1-1-1.7s.6-1.6,1.7-1.9l5.5-1.8c.5-.2,1.1-.2,1.5-.2,1.2,0,1.9.8,1.9,1.9v6.5h.2c2.3-4.6,7.4-8.5,11.2-8.5s5.3,2.4,5.3,5.1Z"/>
        <path class="cls-5" d="M365,136.3c0,1-.6,1.8-1.5,2.6-3.9,3.9-9.2,5.8-14.4,5.8-10.8,0-18.3-7.3-18.3-18.8s8-19.7,18.9-19.7,15.3,5.4,15.3,13.3-1.9,5.3-4.4,5.3h-22c.3,9.3,5.4,14.5,12.9,14.5s7.3-1.4,10-3.6c.8-.5,1.5-.9,2.1-.9,1,0,1.4.8,1.4,1.6ZM338.7,121.1h15.6c2,0,3.4-.8,3.4-2.9,0-4-2.4-8.4-8.5-8.4s-9.5,4.4-10.5,11.2Z"/>
        <path class="cls-5" d="M369.1,137.5c0-2,1.6-3.6,3.6-3.6,4.1,0,3.7,7,12.4,7s8.3-2.3,8.3-5.5-4.1-5-8.9-6.5c-6.3-2-13.7-3.9-13.7-11.6s6-11.1,15-11.1,13.4,2.4,13.4,6.3-1.4,3.2-3.2,3.2c-3.8,0-3.5-5.8-11.2-5.8s-7.1,2.3-7.1,5c0,4,4.7,5.3,9.9,6.9,6.2,1.9,13,3.9,13,11.1s-5.9,11.7-16.4,11.7-14.9-3.3-14.9-7.2Z"/>
        <path class="cls-5" d="M404.5,126.1c0-11.6,7.9-20,19.4-20s13.6,3.2,13.6,7.5-2,4.1-4.1,4.1c-4.3,0-3.2-7.8-10.5-7.8s-10.7,5.4-10.7,14.1,5.5,15.1,12.7,15.1,7.7-1.7,10.4-3.8c.8-.5,1.4-.9,2.1-.9,1.1,0,1.5.8,1.5,1.6s-.6,1.8-1.4,2.6c-3.8,3.8-9.2,6-14.9,6-10.5,0-18.2-7-18.2-18.6Z"/>
        <path class="cls-5" d="M481.6,140.4c.6.5,1.1,1.1,1.1,2s-.8,1.7-2.1,1.7h-10.1c-1.4,0-2.2-.5-2.2-1.7s.4-1.2,1.1-2l.8-.7c1.1-1.1,1.4-2,1.4-4.9v-12.9c0-7.5-2.9-11.1-8.2-11.1s-10.6,5-10.6,8.4v15.5c0,2.9.5,3.8,1.5,4.9l.8.7c.8.8,1.1,1.3,1.1,2,0,1.1-.8,1.7-2.1,1.7h-10.2c-1.3,0-2.1-.5-2.1-1.7s.3-1.1,1.2-2l.8-.8c1.1-1.1,1.5-2.1,1.5-4.9v-35.6c0-2.3-.3-3.5-1.4-4.4l-1-.8c-.8-.6-1.1-1.1-1.1-1.7s.8-1.6,1.7-1.9l6-1.7c.5-.2,1.1-.3,1.6-.3,1.1,0,1.8.8,1.8,2v22.3c2.9-3.7,7.3-6.3,13.1-6.3,8.4,0,13.3,4.8,13.3,14.5v14c0,2.6.3,3.9,1.4,4.9l.9.8Z"/>
        <path class="cls-5" d="M485.9,126.1c0-11.7,8.5-20,20.2-20s19.1,7.6,19.1,18.6-8.5,20-20.2,20-19.1-7.7-19.1-18.6ZM517.3,127.2c0-10-5.4-17-12.7-17s-10.9,5.2-10.9,13.3,5.4,17.2,12.6,17.2,11-5.1,11-13.5Z"/>
        <path class="cls-5" d="M529.4,126.1c0-11.7,8.5-20,20.2-20s19.1,7.6,19.1,18.6-8.5,20-20.2,20-19.1-7.7-19.1-18.6ZM560.8,127.2c0-10-5.4-17-12.7-17s-10.9,5.2-10.9,13.3,5.4,17.2,12.6,17.2,11-5.1,11-13.5Z"/>
        <path class="cls-5" d="M574.3,144c-1.3,0-2.1-.5-2.1-1.7s.3-1.1,1.2-2l.8-.8c1.1-1.1,1.5-2.1,1.5-4.9v-35.6c0-2.3-.3-3.5-1.4-4.4l-1-.8c-.8-.6-1.1-1.1-1.1-1.7s.8-1.6,1.7-1.9l6-1.7c.5-.2,1.1-.3,1.6-.3,1.1,0,1.8.8,1.8,2v44.5c0,2.8.4,3.8,1.5,4.9l.8.8c.8.8,1.1,1.3,1.1,2,0,1.1-.8,1.7-2.2,1.7h-10.2Z"/>
      </g>
      <g>
        <g>
          <path class="cls-5" d="M369.1,207.6c0,1.1-.9,1.7-2.2,1.7h-10.6c-1.3,0-2.2-.5-2.2-1.8s.8-1.2.8-2.6-.8-2.3-2-3.9l-13.4-16.9-8.3,7.8v8c0,2,.3,3.5,1.9,4.9l.9.8c.8.8,1.1,1.2,1.1,2s-.8,1.7-2.1,1.7h-11.7c-1.2,0-2.1-.7-2.1-1.7s.3-1.2,1.1-2l.9-.8c1.2-1,2-2.3,2-4.9v-32.8c0-2.1-.5-3.7-2-4.9l-.9-.8c-.8-.8-1.1-1.2-1.1-1.9,0-1.1.9-1.8,2.1-1.8h11.7c1.3,0,2.1.7,2.1,1.8s-.3,1.1-1.1,1.9l-.9.8c-1.3,1.1-1.9,2.5-1.9,4.9v18.8l21.4-20.3c1.5-1.4,2.1-2.6,2.1-3.3,0-1.1-1.1-1.6-1.1-2.9s.9-1.7,2.2-1.7h9.3c1.3,0,2.1.6,2.1,1.6s-.8,1.6-2.1,2.3c-1.8,1-2.5,1.4-3.6,2.3-1.4,1-2.9,2.4-4.1,3.5l-12.1,11.4,16.6,20.9c1.8,2.3,2.9,3.5,4.8,4.9,1.5,1.1,2.6,1.7,2.6,2.9Z"/>
          <path class="cls-5" d="M375.4,209.3c-1.4,0-2.1-.5-2.1-1.7s.3-1.1,1.1-2l.8-.8c1.1-1.1,1.4-2.1,1.4-4.9v-17.8c0-2.4-.3-3.4-1.4-4.4l-1-.8c-.8-.6-1-1.1-1-1.7s.7-1.6,1.7-1.9l5.9-1.7c.5-.2,1.2-.3,1.6-.3,1.2,0,1.8.8,1.8,1.9v26.7c0,2.8.4,3.9,1.5,4.9l.8.8c.8.8,1.1,1.3,1.1,2,0,1.1-.8,1.7-2.2,1.7h-10.2ZM375.3,160.6c0-2.7,2-4.3,4.7-4.3s4.6,1.6,4.6,4.3-2,4.4-4.6,4.4-4.7-1.7-4.7-4.4Z"/>
          <path class="cls-5" d="M391.6,191.9c0-12.2,7.5-20.4,19-20.4s7.3,1,9.9,2.9v-9.9c0-2.3-.2-3.5-1.4-4.4l-1-.8c-.5-.5-1.1-1-1.1-1.7s.7-1.6,1.7-1.9l5.9-1.7c.5-.2,1.1-.3,1.5-.3,1.2,0,1.9.7,1.9,1.8v44.7c0,4.6,4.6,2.9,4.6,5.3s-.7,1.5-2,2.3c-2,1.1-4.7,2.3-6.6,2.3s-2.8-1.1-2.8-3.8v-2.6h-.2c-2.8,3.9-7.2,6.6-13.4,6.6-9.9,0-16-7.3-16-18.2ZM420.4,195.4v-11.2c0-5.3-4-8.9-9.7-8.9s-11.2,5.6-11.2,14.8,4.3,15.3,10.8,15.3,10.1-4.2,10.1-10Z"/>
          <path class="cls-5" d="M436.5,202.8c0-2,1.6-3.6,3.6-3.6,4.1,0,3.7,7,12.4,7s8.3-2.3,8.3-5.5-4.1-5-8.9-6.5c-6.3-2-13.7-3.9-13.7-11.6s6-11.1,15-11.1,13.4,2.4,13.4,6.3-1.4,3.2-3.2,3.2c-3.8,0-3.5-5.8-11.2-5.8s-7.1,2.3-7.1,5c0,4,4.7,5.3,9.9,6.9,6.2,1.9,13,3.9,13,11.1s-5.9,11.7-16.4,11.7-14.9-3.3-14.9-7.2Z"/>
          <path class="cls-5" d="M482.8,184.2c0-16,10.7-27.3,26.9-27.3s10.1,1.8,12,1.8,2.3-1.8,3.9-1.8,2,1.8,2,2.8l1.3,10.5c.2,1.3-.3,2.6-1.8,2.6s-2-1.1-3.3-3.3c-1.2-2.3-2.9-4.4-5-5.7-2.6-1.7-5.7-2.6-9.1-2.6-11.2,0-18.4,8.2-18.4,20.5s8.1,22.3,20.9,22.3,11.3-3,14.2-5.5c.8-.8,1.6-1.1,2.3-1.1,1.1,0,1.8.7,1.8,1.8s-.3,1.4-.8,2c-3.8,4.7-10.7,8.8-20.5,8.8-15.8,0-26.4-10.3-26.4-25.8Z"/>
          <path class="cls-5" d="M535.6,209.3c-1.3,0-2.1-.5-2.1-1.7s.3-1.1,1.2-2l.8-.8c1.1-1.1,1.5-2.1,1.5-4.9v-35.6c0-2.3-.3-3.5-1.4-4.4l-1-.8c-.8-.6-1.1-1.1-1.1-1.7s.8-1.6,1.7-1.9l6-1.7c.5-.2,1.1-.3,1.6-.3,1.1,0,1.8.8,1.8,2v44.5c0,2.8.4,3.8,1.5,4.9l.8.8c.8.8,1.1,1.3,1.1,2,0,1.1-.8,1.7-2.2,1.7h-10.2Z"/>
          <path class="cls-5" d="M554.7,195.7v-13.4c0-2.3-.2-3.5-1.4-4.4l-1.1-.8c-.6-.5-1-.8-1-1.7s.6-1.6,1.7-1.9l5.9-1.7c.5-.2,1.1-.3,1.5-.3,1.1,0,1.9.7,1.9,1.9v20.6c0,8.2,2.9,11.1,8.4,11.1s10.4-4.4,10.4-8.3v-14.5c0-2.3-.2-3.5-1.4-4.4l-1.1-.8c-.6-.5-1-.9-1-1.7s.6-1.6,1.7-1.9l6-1.7c.5-.2,1-.3,1.4-.3,1.2,0,1.9.7,1.9,1.9v26.7c0,4.6,4.6,2.9,4.6,5.3s-.8,1.6-2,2.3c-1.7,1-4.9,2.3-6.6,2.3s-2.9-1.1-2.9-3.9v-2.6h-.2c-3.3,4.1-8.3,6.6-13.9,6.6-8,0-13-4.5-13-14.4Z"/>
          <path class="cls-5" d="M635.5,189.6c0,12.1-7.5,20.4-19.1,20.4s-8.1-.9-11-3.5c-1,1.9-2.6,3.3-4.1,3.3s-2.1-.9-2.1-2.3v-43.2c0-2.1-.2-3.4-1.4-4.4l-1.1-.8c-.5-.5-1.1-1-1.1-1.7s.7-1.6,1.8-1.9l5.9-1.7c.5-.2,1.1-.3,1.5-.3,1.2,0,1.9.7,1.9,1.8v22.7c2.9-4,7.2-6.6,13-6.6,9.6,0,15.8,7.1,15.8,18.2ZM627.7,191.4c0-9.6-4.4-15.3-10.8-15.3s-10.1,4.3-10.1,10v11.2c0,5.3,4.1,8.9,9.7,8.9s11.2-5.6,11.2-14.8Z"/>
        </g>
        <path class="cls-5" d="M301.8,201.7l-4.4-4.2c-3.2,2.8-7.1,4.2-11.7,4.2s-4.6-.4-6.5-1.2c-1.9-.8-3.4-1.9-4.5-3.3-1.1-1.4-1.6-3-1.6-4.8s.6-4,1.9-5.7c1.3-1.6,3.3-3.2,6.1-4.8-1.4-1.4-2.4-2.7-3-3.9-.6-1.2-.9-2.5-.9-3.7,0-2.4.9-4.4,2.8-5.9,1.8-1.5,4.3-2.3,7.3-2.3s5.1.7,6.7,2.1c1.7,1.4,2.5,3.2,2.5,5.6s-.6,3.4-1.7,4.8-2.9,2.8-5.4,4.2l7.5,7.1c.8-1.6,1.5-3.6,1.9-5.9l5,1.6c-.7,3.1-1.7,5.7-3.1,7.9l4.4,4.2-3.4,4ZM293.8,193.9l-9.2-8.8c-2,1.1-3.4,2.1-4.2,3.1-.8,1-1.2,2.1-1.2,3.4s.6,2.6,1.9,3.5c1.3.9,3,1.3,5.1,1.3s5.4-.9,7.5-2.6ZM284.2,171.5c-.8.7-1.2,1.6-1.2,2.7s.2,1.5.6,2.3c.4.7,1.3,1.7,2.5,2.9,2-1.1,3.4-2,4.1-2.9.8-.8,1.2-1.7,1.2-2.7s-.4-1.8-1.1-2.4c-.7-.6-1.7-.9-2.9-.9s-2.4.3-3.2,1Z"/>
      </g>
    </g>
  </g>
</svg>